# xmcd
#
# Track frame offsets: 
#        150
#        19116
#        41204
#        60936
#        77072
#        98934
#        118778
#        137898
#        154418
#        170185
#        185661
#        206099
#        221197
#        238852
#        263347
#
# Disc length: 3634 seconds
#
# Revision: 1
# Processed by: cddbd v1.5.2PL0 Copyright (c) Steve Scherf et al.
# Submitted via: ExactAudioCopy v0.99pb4
#
DISCID=e10e300f
DTITLE=Tal Farlow - The Complete Verve Tal Farlow Sessions CD 06
DYEAR=2004
DGENRE=Jazz
TTITLE0=Lean On Me
TTITLE1=Wonder Why
TTITLE2=Night And Day
TTITLE3=Stella By Starlight
TTITLE4=The More I See You
TTITLE5=All The Things You Are
TTITLE6=How Long Has This Been Going On?
TTITLE7=Topsy
TTITLE8='Deed I Do
TTITLE9=We'll Be Together Again
TTITLE10=We'll Be Together Again (alt. take 1)
TTITLE11=We'll Be Together Again (alt. take 2)
TTITLE12=The More I See You (breakdowns)
TTITLE13='Deed I Do (breakdowns)
TTITLE14=We'll Be Together Again (breakdowns)
EXTD=YEAR: 2004
EXTT0=
EXTT1=
EXTT2=
EXTT3=
EXTT4=
EXTT5=
EXTT6=
EXTT7=
EXTT8=
EXTT9=
EXTT10=
EXTT11=
EXTT12=
EXTT13=
EXTT14=
PLAYORDER=
